<mxfile host="app.diagrams.net" modified="2024-02-02T10:18:15.065Z" agent="Mozilla/5.0 (Windows NT 10.0; Win64; x64) AppleWebKit/537.36 (KHTML, like Gecko) Chrome/121.0.0.0 Safari/537.36" etag="vRhC0qZ0KI4fvVL6PpQA" version="23.1.1" type="device">
  <diagram name="Page-1" id="W2kLE4I33g0CinMKrurp">
    <mxGraphModel dx="1105" dy="595" grid="1" gridSize="10" guides="1" tooltips="1" connect="1" arrows="1" fold="1" page="1" pageScale="1" pageWidth="850" pageHeight="1100" math="0" shadow="0">
      <root>
        <mxCell id="0" />
        <mxCell id="1" parent="0" />
        <mxCell id="iAR1ULsyr4tdmGFDWpus-8" value="&lt;br&gt;&lt;br&gt;&lt;br&gt;&lt;br&gt;&lt;br&gt;&lt;br&gt;&lt;br&gt;&lt;br&gt;&lt;br&gt;" style="rounded=1;whiteSpace=wrap;html=1;" parent="1" vertex="1">
          <mxGeometry x="490" y="270" width="270" height="300" as="geometry" />
        </mxCell>
        <mxCell id="iAR1ULsyr4tdmGFDWpus-1" value="&lt;br&gt;&lt;br&gt;&lt;br&gt;&lt;br&gt;&lt;br&gt;&lt;br&gt;&lt;br&gt;&lt;br&gt;&lt;br&gt;Forgot Password ?" style="rounded=1;whiteSpace=wrap;html=1;" parent="1" vertex="1">
          <mxGeometry x="140" y="270" width="270" height="300" as="geometry" />
        </mxCell>
        <mxCell id="iAR1ULsyr4tdmGFDWpus-2" value="Email" style="rounded=0;whiteSpace=wrap;html=1;" parent="1" vertex="1">
          <mxGeometry x="212.5" y="350" width="120" height="20" as="geometry" />
        </mxCell>
        <mxCell id="iAR1ULsyr4tdmGFDWpus-3" value="Password" style="rounded=0;whiteSpace=wrap;html=1;" parent="1" vertex="1">
          <mxGeometry x="212.5" y="390" width="120" height="20" as="geometry" />
        </mxCell>
        <mxCell id="iAR1ULsyr4tdmGFDWpus-7" value="&lt;font style=&quot;font-size: 16px;&quot;&gt;Login&lt;/font&gt;" style="text;html=1;align=center;verticalAlign=middle;resizable=0;points=[];autosize=1;strokeColor=none;fillColor=none;" parent="1" vertex="1">
          <mxGeometry x="245" y="228" width="60" height="30" as="geometry" />
        </mxCell>
        <mxCell id="iAR1ULsyr4tdmGFDWpus-9" value="Email" style="rounded=0;whiteSpace=wrap;html=1;" parent="1" vertex="1">
          <mxGeometry x="565" y="370" width="120" height="20" as="geometry" />
        </mxCell>
        <mxCell id="iAR1ULsyr4tdmGFDWpus-10" value="Password" style="rounded=0;whiteSpace=wrap;html=1;" parent="1" vertex="1">
          <mxGeometry x="565" y="400" width="120" height="20" as="geometry" />
        </mxCell>
        <mxCell id="iAR1ULsyr4tdmGFDWpus-11" value="&lt;font style=&quot;font-size: 16px;&quot;&gt;Sign Up&lt;/font&gt;" style="text;html=1;align=center;verticalAlign=middle;resizable=0;points=[];autosize=1;strokeColor=none;fillColor=none;" parent="1" vertex="1">
          <mxGeometry x="585" y="228" width="80" height="30" as="geometry" />
        </mxCell>
        <mxCell id="iAR1ULsyr4tdmGFDWpus-12" value="Confirm Password" style="rounded=0;whiteSpace=wrap;html=1;" parent="1" vertex="1">
          <mxGeometry x="565" y="430" width="120" height="20" as="geometry" />
        </mxCell>
        <mxCell id="iAR1ULsyr4tdmGFDWpus-14" value="Mobile Number" style="rounded=0;whiteSpace=wrap;html=1;" parent="1" vertex="1">
          <mxGeometry x="565" y="460" width="120" height="20" as="geometry" />
        </mxCell>
        <mxCell id="iAR1ULsyr4tdmGFDWpus-15" value="Login" style="rounded=0;whiteSpace=wrap;html=1;" parent="1" vertex="1">
          <mxGeometry x="240" y="450" width="65" height="20" as="geometry" />
        </mxCell>
        <mxCell id="iAR1ULsyr4tdmGFDWpus-16" value="Sign Up" style="rounded=0;whiteSpace=wrap;html=1;" parent="1" vertex="1">
          <mxGeometry x="592.5" y="520" width="65" height="20" as="geometry" />
        </mxCell>
        <mxCell id="iAR1ULsyr4tdmGFDWpus-17" value="First Name" style="rounded=0;whiteSpace=wrap;html=1;" parent="1" vertex="1">
          <mxGeometry x="565" y="310" width="120" height="20" as="geometry" />
        </mxCell>
        <mxCell id="iAR1ULsyr4tdmGFDWpus-18" value="Last Name" style="rounded=0;whiteSpace=wrap;html=1;" parent="1" vertex="1">
          <mxGeometry x="565" y="340" width="120" height="20" as="geometry" />
        </mxCell>
        <mxCell id="TYVkz_ZJ9rDTXxfKgncU-1" value="Home" style="rounded=1;whiteSpace=wrap;html=1;" vertex="1" parent="1">
          <mxGeometry x="90" y="670" width="820" height="300" as="geometry" />
        </mxCell>
      </root>
    </mxGraphModel>
  </diagram>
</mxfile>
